<svg width="18" height="17" viewBox="0 0 18 17" fill="none" xmlns="http://www.w3.org/2000/svg">
<path d="M9.30009 7.08329C7.73528 7.08329 6.46676 5.81477 6.46676 4.24996C6.46676 2.68515 7.73528 1.41663 9.30009 1.41663C10.8649 1.41663 12.1334 2.68515 12.1334 4.24996C12.1334 5.81477 10.8649 7.08329 9.30009 7.08329Z" stroke="#AFBFD4" stroke-width="1.0625"/>
<path d="M3.63482 12.7499C3.63388 12.6338 3.6334 12.5157 3.6334 12.3958C3.6334 10.6355 6.17065 9.20825 9.30007 9.20825C12.4295 9.20825 14.9667 10.6355 14.9667 12.3958C14.9667 14.156 14.9667 15.5833 9.30007 15.5833C7.71978 15.5833 6.58007 15.472 5.7584 15.2737" stroke="#AFBFD4" stroke-width="1.0625" stroke-linecap="round"/>
</svg>
