<svg width="18" height="18" viewBox="0 0 18 18" fill="none" xmlns="http://www.w3.org/2000/svg">
<path fill-rule="evenodd" clip-rule="evenodd" d="M1.53076 1.281C0.249756 2.56375 0.249756 4.62525 0.249756 8.75C0.249756 12.8748 0.249756 14.9371 1.53076 16.2181C2.81351 17.5 4.87501 17.5 8.99976 17.5C13.1245 17.5 15.1869 17.5 16.4679 16.2181C17.7498 14.938 17.7498 12.8748 17.7498 8.75C17.7498 4.62525 17.7498 2.56288 16.4679 1.281C15.1878 0 13.1245 0 8.99976 0C4.87501 0 2.81263 0 1.53076 1.281ZM3.27813 7.9485C3.44047 6.54271 4.1141 5.2457 5.17077 4.30439C6.22745 3.36308 7.59337 2.84321 9.00851 2.84375C10.7428 2.84375 12.2985 3.60938 13.3546 4.81862C13.4649 4.95029 13.5192 5.11996 13.5059 5.2912C13.4925 5.46245 13.4125 5.62163 13.2831 5.73456C13.1536 5.8475 12.9851 5.90518 12.8136 5.89524C12.6421 5.88529 12.4814 5.80851 12.3659 5.68138C11.948 5.20172 11.432 4.81734 10.8528 4.55423C10.2736 4.29112 9.64467 4.15541 9.00851 4.15625C7.94153 4.15549 6.90975 4.53781 6.10088 5.23362C5.29201 5.92944 4.75981 6.89252 4.60113 7.94763H4.91963C5.04952 7.94757 5.17651 7.98605 5.28451 8.05821C5.39251 8.13037 5.47667 8.23296 5.52633 8.35298C5.57598 8.47301 5.58891 8.60507 5.56346 8.73244C5.53802 8.85981 5.47534 8.97677 5.38338 9.0685L4.36051 10.0896C4.23746 10.2125 4.07066 10.2815 3.89676 10.2815C3.72285 10.2815 3.55605 10.2125 3.43301 10.0896L2.41101 9.0685C2.31934 8.97672 2.25694 8.85984 2.23166 8.73262C2.20639 8.6054 2.21938 8.47353 2.269 8.35369C2.31863 8.23385 2.40265 8.1314 2.51047 8.05928C2.61828 7.98716 2.74505 7.94861 2.87476 7.9485H3.27813ZM13.6381 7.41037C13.7612 7.28748 13.928 7.21845 14.1019 7.21845C14.2758 7.21845 14.4426 7.28748 14.5656 7.41037L15.5885 8.4315C15.6802 8.52328 15.7426 8.64016 15.7678 8.76738C15.7931 8.8946 15.7801 9.02647 15.7305 9.14631C15.6809 9.26615 15.5969 9.3686 15.489 9.44072C15.3812 9.51284 15.2545 9.55139 15.1248 9.5515H14.7223C14.5599 10.9574 13.8861 12.2546 12.8293 13.1959C11.7724 14.1372 10.4063 14.657 8.99101 14.6562C8.16755 14.6572 7.35348 14.4814 6.60373 14.1409C5.85399 13.8003 5.18601 13.3029 4.64488 12.6822C4.53036 12.5511 4.47261 12.3799 4.48434 12.2062C4.49608 12.0325 4.57633 11.8706 4.70744 11.7561C4.83856 11.6415 5.0098 11.5838 5.18349 11.5955C5.35719 11.6073 5.51911 11.6875 5.63363 11.8186C6.05162 12.2984 6.56774 12.6828 7.1471 12.9459C7.72647 13.2091 8.35557 13.3447 8.99188 13.3438C10.0587 13.3443 11.0903 12.9619 11.899 12.2661C12.7077 11.5703 13.2397 10.6073 13.3984 9.55237H13.0808C12.9509 9.55243 12.8239 9.51395 12.7159 9.44179C12.6079 9.36963 12.5237 9.26704 12.4741 9.14702C12.4244 9.02699 12.4115 8.89493 12.4369 8.76756C12.4624 8.64019 12.525 8.52323 12.617 8.4315L13.6381 7.41037Z" fill="white"/>
</svg>
