<svg width="23" height="23" viewBox="0 0 23 23" fill="none" xmlns="http://www.w3.org/2000/svg">
<path d="M14.3751 10.5416C13.3165 10.5416 12.4584 9.68353 12.4584 8.62498C12.4584 7.56643 13.3165 6.70831 14.3751 6.70831C15.4336 6.70831 16.2917 7.56643 16.2917 8.62498C16.2917 9.68353 15.4336 10.5416 14.3751 10.5416Z" stroke="white" stroke-width="1.0625"/>
<path d="M10.5417 14.375C10.5417 15.4339 10.5417 16.2916 14.375 16.2916C18.2084 16.2916 18.2084 15.4339 18.2084 14.375C18.2084 13.316 16.493 12.4583 14.375 12.4583C12.2571 12.4583 10.5417 13.316 10.5417 14.375Z" stroke="white" stroke-width="1.0625"/>
<path d="M1.91671 11.5C1.91671 15.1139 1.91671 16.9213 3.03988 18.0435C4.16304 19.1657 5.9695 19.1666 9.58337 19.1666H13.4167C17.0306 19.1666 18.838 19.1666 19.9602 18.0435C21.0824 16.9203 21.0834 15.1139 21.0834 11.5C21.0834 7.8861 21.0834 6.07869 19.9602 4.95648C18.837 3.83427 17.0306 3.83331 13.4167 3.83331H9.58337C5.9695 3.83331 4.16208 3.83331 3.03988 4.95648C2.58946 5.4069 2.32017 5.96656 2.15821 6.70831M4.79171 11.5H8.62504M4.79171 8.62498H9.58337M4.79171 14.375H7.66671" stroke="white" stroke-width="1.0625" stroke-linecap="round"/>
</svg>
