<svg width="18" height="18" viewBox="0 0 18 18" fill="none" xmlns="http://www.w3.org/2000/svg">
<path d="M13.9584 7.29198V5.62531C13.9584 5.34142 13.9354 5.06364 13.8892 4.79198M3.95842 7.29198V5.62531C3.95835 4.60968 4.26758 3.61811 4.84496 2.78256C5.42234 1.947 6.24048 1.30709 7.1905 0.947984C8.14053 0.588874 9.17739 0.527594 10.1631 0.772298C11.1488 1.017 12.0366 1.55609 12.7084 2.31781M9.79175 17.292H12.2917C14.6484 17.292 15.8276 17.292 16.5592 16.5595C17.2917 15.8278 17.2917 14.6486 17.2917 12.292C17.2917 9.93531 17.2917 8.75614 16.5592 8.02448C15.8276 7.29198 14.6484 7.29198 12.2917 7.29198H5.62508C3.26841 7.29198 2.08925 7.29198 1.35758 8.02448C0.625082 8.75614 0.625082 9.93531 0.625082 12.292C0.625082 14.6486 0.625082 15.8278 1.35758 16.5595C2.08925 17.292 3.26841 17.292 5.62508 17.292H6.45841" stroke="white" stroke-width="1.25" stroke-linecap="round"/>
</svg>
