<svg width="18" height="17" viewBox="0 0 18 17" fill="none" xmlns="http://www.w3.org/2000/svg">
<path d="M9.30013 7.08341C7.73532 7.08341 6.4668 5.81489 6.4668 4.25008C6.4668 2.68527 7.73532 1.41675 9.30013 1.41675C10.8649 1.41675 12.1334 2.68527 12.1334 4.25008C12.1334 5.81489 10.8649 7.08341 9.30013 7.08341Z" stroke="white" stroke-width="1.0625"/>
<path d="M3.63472 12.7499C3.63378 12.6338 3.6333 12.5157 3.6333 12.3958C3.6333 10.6355 6.17055 9.20825 9.29997 9.20825C12.4294 9.20825 14.9666 10.6355 14.9666 12.3958C14.9666 14.156 14.9666 15.5833 9.29997 15.5833C7.71968 15.5833 6.57997 15.472 5.7583 15.2737" stroke="white" stroke-width="1.0625" stroke-linecap="round"/>
</svg>
