<svg width="128" height="128" viewBox="0 0 128 128" fill="none" xmlns="http://www.w3.org/2000/svg">
<g filter="url(#filter0_dd_387_531)">
<rect x="4" y="3" width="120" height="120" rx="45" fill="#F6FAF9"/>
<path d="M15.7842 38.2501C17.4976 36.5912 20.273 36.5912 21.9854 38.2501L49.124 64.545V66.3058C49.1244 79.9231 60.5593 91.0019 74.6133 91.0021C77.2463 91.002 79.8503 90.6093 82.332 89.8478L68.8926 76.8253C70.3729 77.4903 72.0132 77.8634 73.7412 77.8634C76.1726 77.8634 78.4318 77.1294 80.3125 75.8732L93.0049 88.172C95.0253 90.1297 94.6058 93.4062 92.1523 94.8253C86.8652 97.8832 80.8004 99.5 74.6133 99.5001C56.3494 99.4999 41.3768 85.5803 40.4043 68.1144L15.7842 44.2589C14.072 42.5987 14.0721 39.9093 15.7842 38.2501ZM72.4609 31.504C90.4958 31.2523 105.896 44.9019 107.141 62.3361C107.827 71.9426 104.297 81.0371 97.6797 87.6886L91.4795 81.6808C96.4927 76.5694 99.0757 69.5544 98.3281 62.1954C97.0179 49.2833 85.2119 39.4587 71.833 40.0216C69.4016 40.1236 67.022 40.5574 64.7363 41.3126L79.7979 55.8312C78.0254 54.7748 75.9544 54.1671 73.7412 54.1671C71.4344 54.1671 69.2827 54.8285 67.4619 55.9689L54.1533 43.0753C52.1552 41.139 52.5418 37.9027 54.9443 36.4601C56.7575 35.3714 58.6846 34.4436 60.6709 33.7032C64.4385 32.2992 68.4017 31.5604 72.4609 31.504ZM73.7422 59.3185C77.4405 59.3187 80.4384 62.3164 80.4385 66.0148C80.4385 69.7132 77.4406 72.7118 73.7422 72.712C70.0436 72.712 67.0449 69.7134 67.0449 66.0148C67.045 62.3163 70.0437 59.3185 73.7422 59.3185ZM29.5986 32.7443C31.312 31.0856 34.0875 31.0856 35.7998 32.7443L63.6807 59.7579C62.5487 61.574 61.8926 63.7182 61.8926 66.0157C61.8926 67.8749 62.3227 69.6335 63.0859 71.1993L29.5986 38.7531C27.8876 37.0939 27.8865 34.4045 29.5986 32.7443Z" fill="#52B69A"/>
</g>
<defs>
<filter id="filter0_dd_387_531" x="0" y="0" width="128" height="128" filterUnits="userSpaceOnUse" color-interpolation-filters="sRGB">
<feFlood flood-opacity="0" result="BackgroundImageFix"/>
<feColorMatrix in="SourceAlpha" type="matrix" values="0 0 0 0 0 0 0 0 0 0 0 0 0 0 0 0 0 0 127 0" result="hardAlpha"/>
<feMorphology radius="1" operator="dilate" in="SourceAlpha" result="effect1_dropShadow_387_531"/>
<feOffset dy="1"/>
<feGaussianBlur stdDeviation="1.5"/>
<feColorMatrix type="matrix" values="0 0 0 0 0 0 0 0 0 0 0 0 0 0 0 0 0 0 0.15 0"/>
<feBlend mode="normal" in2="BackgroundImageFix" result="effect1_dropShadow_387_531"/>
<feColorMatrix in="SourceAlpha" type="matrix" values="0 0 0 0 0 0 0 0 0 0 0 0 0 0 0 0 0 0 127 0" result="hardAlpha"/>
<feOffset dy="1"/>
<feGaussianBlur stdDeviation="1"/>
<feColorMatrix type="matrix" values="0 0 0 0 0 0 0 0 0 0 0 0 0 0 0 0 0 0 0.3 0"/>
<feBlend mode="normal" in2="effect1_dropShadow_387_531" result="effect2_dropShadow_387_531"/>
<feBlend mode="normal" in="SourceGraphic" in2="effect2_dropShadow_387_531" result="shape"/>
</filter>
</defs>
</svg>
