<svg width="264" height="104" viewBox="0 0 264 104" fill="none" xmlns="http://www.w3.org/2000/svg">
<path d="M78.7051 44.2461H84.8184V48.7188H78.7051V59.2461C78.7051 60.0794 78.9395 60.7044 79.4082 61.1211C79.8899 61.5246 80.5216 61.7266 81.3027 61.7266C81.9536 61.7265 82.5854 61.6614 83.1973 61.5312C83.8221 61.4011 84.4409 61.2382 85.0527 61.043V65.4766C84.4148 65.763 83.6203 65.9974 82.6699 66.1797C81.7325 66.375 80.7036 66.4726 79.584 66.4727C78.282 66.4727 77.1099 66.2642 76.0684 65.8477C75.0398 65.418 74.2259 64.6822 73.627 63.6406C73.041 62.5859 72.748 61.1211 72.748 59.2461V48.7188H69.8965V46.1992L73.1777 44.207L74.8965 39.5977H78.7051V44.2461ZM98.4316 43.7969C101.361 43.7969 103.607 44.435 105.17 45.7109C106.732 46.987 107.514 48.9272 107.514 51.5312V66.082H103.354L102.201 63.1133H102.045C101.42 63.8944 100.782 64.5326 100.131 65.0273C99.4799 65.5221 98.731 65.8867 97.8848 66.1211C97.0385 66.3554 96.0096 66.4726 94.7988 66.4727C93.5099 66.4727 92.3508 66.2252 91.3223 65.7305C90.3067 65.2357 89.5059 64.4804 88.9199 63.4648C88.334 62.4362 88.041 61.1341 88.041 59.5586C88.041 57.2409 88.8548 55.5352 90.4824 54.4414C92.11 53.3347 94.5516 52.7226 97.8066 52.6055L101.596 52.4883V51.5312C101.596 50.3856 101.296 49.5456 100.697 49.0117C100.098 48.4779 99.2648 48.211 98.1973 48.2109C97.1427 48.2109 96.1073 48.3607 95.0918 48.6602C94.0763 48.9596 93.0604 49.3373 92.0449 49.793L90.0723 45.7695C91.231 45.1576 92.5268 44.6758 93.959 44.3242C95.4042 43.9727 96.8953 43.7969 98.4316 43.7969ZM23.3203 37.5273C25.9115 37.5273 28.0469 37.8398 29.7266 38.4648C31.4193 39.0898 32.6758 40.0339 33.4961 41.2969C34.3164 42.5599 34.7266 44.1549 34.7266 46.082C34.7266 47.3841 34.4792 48.5234 33.9844 49.5C33.4896 50.4766 32.8385 51.3034 32.0312 51.9805C31.224 52.6576 30.3516 53.2109 29.4141 53.6406L37.8125 66.082H31.0938L24.2773 55.125H21.0547V66.082H15V37.5273H23.3203ZM99.291 56.043C97.3641 56.095 96.0228 56.4402 95.2676 57.0781C94.5254 57.7161 94.1543 58.556 94.1543 59.5977C94.1543 60.5091 94.4212 61.1602 94.9551 61.5508C95.4889 61.9283 96.1857 62.1172 97.0449 62.1172C98.3208 62.1171 99.3953 61.7395 100.268 60.9844C101.153 60.2292 101.596 59.1548 101.596 57.7617V55.9648L99.291 56.043ZM21.0547 50.2031H23.0078C25.013 50.2031 26.4453 49.8711 27.3047 49.207C28.1771 48.5299 28.6133 47.5404 28.6133 46.2383C28.6133 44.8841 28.1445 43.9206 27.207 43.3477C26.2826 42.7747 24.8438 42.4883 22.8906 42.4883H21.0547V50.2031Z" fill="black"/>
<path d="M129.947 51.9648H141.275V66.7695C139.778 67.2643 138.222 67.6615 136.607 67.9609C134.993 68.2474 133.163 68.3906 131.119 68.3906C128.281 68.3906 125.872 67.8307 123.893 66.7109C121.913 65.5911 120.41 63.9375 119.381 61.75C118.352 59.5625 117.838 56.8737 117.838 53.6836C117.838 50.6888 118.411 48.0977 119.557 45.9102C120.715 43.7227 122.402 42.0299 124.615 40.832C126.842 39.6341 129.557 39.0352 132.76 39.0352C134.27 39.0352 135.761 39.1979 137.232 39.5234C138.704 39.849 140.038 40.2721 141.236 40.793L139.225 45.6367C138.352 45.194 137.356 44.8229 136.236 44.5234C135.117 44.224 133.945 44.0742 132.721 44.0742C130.963 44.0742 129.433 44.4779 128.131 45.2852C126.842 46.0924 125.839 47.2253 125.123 48.6836C124.42 50.1289 124.068 51.8346 124.068 53.8008C124.068 55.6628 124.322 57.3164 124.83 58.7617C125.338 60.194 126.139 61.3203 127.232 62.1406C128.326 62.9479 129.752 63.3516 131.51 63.3516C132.369 63.3516 133.092 63.3125 133.678 63.2344C134.277 63.1432 134.837 63.0521 135.357 62.9609V57.0039H129.947V51.9648ZM156.627 45.7539C158.645 45.7539 160.383 46.1445 161.842 46.9258C163.3 47.694 164.426 48.8138 165.221 50.2852C166.015 51.7565 166.412 53.5534 166.412 55.6758V58.5664H152.33C152.395 60.2461 152.896 61.5677 153.834 62.5312C154.785 63.4818 156.1 63.957 157.779 63.957C159.173 63.957 160.449 63.8138 161.607 63.5273C162.766 63.2409 163.958 62.8112 165.182 62.2383V66.8477C164.101 67.3815 162.968 67.7721 161.783 68.0195C160.611 68.2669 159.186 68.3906 157.506 68.3906C155.318 68.3906 153.378 67.987 151.686 67.1797C150.006 66.3724 148.684 65.1419 147.721 63.4883C146.77 61.8346 146.295 59.7513 146.295 57.2383C146.295 54.6862 146.725 52.5638 147.584 50.8711C148.456 49.1654 149.667 47.8893 151.217 47.043C152.766 46.1836 154.57 45.7539 156.627 45.7539ZM156.666 49.9922C155.507 49.9922 154.544 50.3633 153.775 51.1055C153.02 51.8477 152.584 53.013 152.467 54.6016H160.826C160.813 53.7161 160.65 52.9284 160.338 52.2383C160.038 51.5482 159.583 51.0013 158.971 50.5977C158.372 50.194 157.604 49.9922 156.666 49.9922ZM186.49 61.5156C186.49 63 186.139 64.2565 185.436 65.2852C184.745 66.3008 183.71 67.0755 182.33 67.6094C180.95 68.1302 179.231 68.3906 177.174 68.3906C175.65 68.3906 174.342 68.293 173.248 68.0977C172.167 67.9023 171.074 67.5768 169.967 67.1211V62.1992C171.152 62.7331 172.421 63.1758 173.775 63.5273C175.143 63.8659 176.34 64.0352 177.369 64.0352C178.528 64.0352 179.355 63.8659 179.85 63.5273C180.357 63.1758 180.611 62.7201 180.611 62.1602C180.611 61.7956 180.507 61.4701 180.299 61.1836C180.104 60.8841 179.674 60.5521 179.01 60.1875C178.346 59.8099 177.304 59.3216 175.885 58.7227C174.518 58.1497 173.391 57.5703 172.506 56.9844C171.633 56.3984 170.982 55.7083 170.553 54.9141C170.136 54.1068 169.928 53.0846 169.928 51.8477C169.928 49.8294 170.709 48.3125 172.271 47.2969C173.847 46.2682 175.95 45.7539 178.58 45.7539C179.934 45.7539 181.223 45.8906 182.447 46.1641C183.684 46.4375 184.954 46.8737 186.256 47.4727L184.459 51.7695C183.378 51.3008 182.356 50.9167 181.393 50.6172C180.442 50.3177 179.472 50.168 178.482 50.168C177.61 50.168 176.952 50.2852 176.51 50.5195C176.067 50.7539 175.846 51.112 175.846 51.5938C175.846 51.9453 175.956 52.2578 176.178 52.5312C176.412 52.8047 176.855 53.1107 177.506 53.4492C178.17 53.7747 179.14 54.1979 180.416 54.7188C181.653 55.2266 182.727 55.7604 183.639 56.3203C184.55 56.8672 185.253 57.5508 185.748 58.3711C186.243 59.1784 186.49 60.2266 186.49 61.5156ZM200.338 63.6445C200.989 63.6445 201.62 63.5794 202.232 63.4492C202.857 63.319 203.476 63.1562 204.088 62.9609V67.3945C203.45 67.681 202.656 67.9154 201.705 68.0977C200.768 68.293 199.739 68.3906 198.619 68.3906C197.317 68.3906 196.145 68.1823 195.104 67.7656C194.075 67.3359 193.261 66.6003 192.662 65.5586C192.076 64.5039 191.783 63.0391 191.783 61.1641V50.6367H188.932V48.1172L192.213 46.125L193.932 41.5156H197.74V46.1641H203.854V50.6367H197.74V61.1641C197.74 61.9974 197.975 62.6224 198.443 63.0391C198.925 63.4427 199.557 63.6445 200.338 63.6445ZM228.365 57.043C228.365 58.8659 228.118 60.4805 227.623 61.8867C227.141 63.293 226.432 64.4844 225.494 65.4609C224.57 66.4245 223.45 67.1536 222.135 67.6484C220.833 68.1432 219.361 68.3906 217.721 68.3906C216.184 68.3906 214.771 68.1432 213.482 67.6484C212.206 67.1536 211.093 66.4245 210.143 65.4609C209.205 64.4844 208.476 63.293 207.955 61.8867C207.447 60.4805 207.193 58.8659 207.193 57.043C207.193 54.6211 207.623 52.5703 208.482 50.8906C209.342 49.2109 210.566 47.9349 212.154 47.0625C213.743 46.1901 215.637 45.7539 217.838 45.7539C219.882 45.7539 221.692 46.1901 223.268 47.0625C224.856 47.9349 226.1 49.2109 226.998 50.8906C227.91 52.5703 228.365 54.6211 228.365 57.043ZM213.268 57.043C213.268 58.4753 213.424 59.6797 213.736 60.6562C214.049 61.6328 214.537 62.3685 215.201 62.8633C215.865 63.3581 216.731 63.6055 217.799 63.6055C218.854 63.6055 219.706 63.3581 220.357 62.8633C221.021 62.3685 221.503 61.6328 221.803 60.6562C222.115 59.6797 222.271 58.4753 222.271 57.043C222.271 55.5977 222.115 54.3997 221.803 53.4492C221.503 52.4857 221.021 51.763 220.357 51.2812C219.693 50.7995 218.827 50.5586 217.76 50.5586C216.184 50.5586 215.038 51.099 214.322 52.1797C213.619 53.2604 213.268 54.8815 213.268 57.043ZM245.475 45.7539C245.774 45.7539 246.119 45.7734 246.51 45.8125C246.913 45.8385 247.239 45.8776 247.486 45.9297L247.037 51.5156C246.842 51.4505 246.562 51.4049 246.197 51.3789C245.846 51.3398 245.54 51.3203 245.279 51.3203C244.511 51.3203 243.762 51.418 243.033 51.6133C242.317 51.8086 241.673 52.1276 241.1 52.5703C240.527 53 240.071 53.5729 239.732 54.2891C239.407 54.9922 239.244 55.8581 239.244 56.8867V68H233.287V46.1641H237.799L238.678 49.8359H238.971C239.4 49.0938 239.934 48.4167 240.572 47.8047C241.223 47.1797 241.959 46.6849 242.779 46.3203C243.613 45.9427 244.511 45.7539 245.475 45.7539Z" fill="#52B69A"/>
<path d="M38.5318 45.2832C37.9526 44.7222 37.0136 44.7221 36.4341 45.2832C35.8556 45.8443 35.8555 46.754 36.4341 47.3154L44.7623 55.3848C45.0915 61.2919 50.1555 65.9998 56.3326 66C58.4251 66 60.477 65.4531 62.2652 64.4189C63.0948 63.9389 63.2364 62.8311 62.5533 62.1689L58.2603 58.0088C57.6243 58.4335 56.8599 58.6816 56.0377 58.6816C55.4523 58.6816 54.8973 58.5537 54.3961 58.3281L58.9429 62.7354C58.1037 62.9928 57.2229 63.126 56.3326 63.126C51.5792 63.1257 47.7117 59.3781 47.7115 54.7725V54.1768L38.5318 45.2832ZM55.605 43.002C54.2322 43.021 52.891 43.2703 51.6168 43.7451C50.9452 43.9955 50.2933 44.3096 49.6802 44.6777C48.8679 45.1658 48.7369 46.2602 49.4127 46.915L53.9136 51.2764C54.5295 50.8905 55.2573 50.667 56.0377 50.667C56.7863 50.667 57.487 50.8722 58.0865 51.2295L52.9918 46.3193C53.7647 46.0639 54.5699 45.9173 55.3922 45.8828C59.9174 45.6924 63.911 49.0154 64.3541 53.3828C64.6067 55.8715 63.7329 58.244 62.0377 59.9727L64.1343 62.0049C66.3724 59.7552 67.5666 56.6789 67.3345 53.4297C66.9136 47.5331 61.7048 42.917 55.605 43.002ZM43.2047 43.4209C42.6255 42.8599 41.6865 42.8599 41.107 43.4209C40.5283 43.9824 40.5285 44.892 41.107 45.4531L52.4351 56.4287C52.1765 55.8987 52.0308 55.3033 52.0308 54.6738C52.0309 53.8967 52.2524 53.1719 52.6353 52.5576L43.2047 43.4209Z" fill="#222222"/>
<circle cx="56.0381" cy="54.6739" r="2.26511" fill="#222222"/>
</svg>
