<svg width="264" height="168" viewBox="0 0 264 168" fill="none" xmlns="http://www.w3.org/2000/svg">
<path d="M80.7599 32.9732C79.0863 31.3518 76.373 31.3517 74.6984 32.9732C73.025 34.5947 73.0252 37.2236 74.6984 38.8463L98.7619 62.1617C99.7124 79.2321 114.345 92.8364 132.195 92.8365C138.243 92.8365 144.17 91.256 149.338 88.2672C151.736 86.8802 152.146 83.6785 150.172 81.7652L137.767 69.7447C135.929 70.9727 133.72 71.69 131.343 71.69C129.653 71.6899 128.05 71.3239 126.603 70.6734L139.739 83.4029C137.314 84.1472 134.769 84.5308 132.195 84.5308C118.459 84.5307 107.284 73.7023 107.284 60.3931V58.6734L80.7599 32.9732ZM130.093 26.3804C126.126 26.4355 122.252 27.1575 118.57 28.5298C116.628 29.2535 114.745 30.1601 112.973 31.2242C110.624 32.634 110.246 35.7974 112.199 37.69L125.206 50.2916C126.986 49.1769 129.088 48.5299 131.343 48.5298C133.507 48.5298 135.532 49.1245 137.265 50.1578L122.543 35.9664C124.777 35.2282 127.102 34.8053 129.479 34.7056C142.555 34.1554 154.094 43.7568 155.374 56.3765C156.105 63.5689 153.581 70.4258 148.681 75.4214L154.74 81.2925C161.208 74.7916 164.658 65.9032 163.987 56.5142C162.771 39.4749 147.719 26.1346 130.093 26.3804ZM94.2619 27.5923C92.5883 25.9708 89.8751 25.9709 88.2004 27.5923C86.5268 29.215 86.5279 31.8438 88.2004 33.4654L120.93 65.1773C120.184 63.6466 119.763 61.9275 119.763 60.1099C119.763 57.8642 120.404 55.7688 121.511 53.9937L94.2619 27.5923Z" fill="#222222"/>
<circle cx="131.344" cy="60.1096" r="6.54523" fill="#222222"/>
<path d="M51.0693 110.156C53.1423 110.156 54.8506 110.406 56.1943 110.906C57.5485 111.406 58.5537 112.161 59.21 113.172C59.8662 114.182 60.1943 115.458 60.1943 117C60.1943 118.042 59.9964 118.953 59.6006 119.734C59.2048 120.516 58.6839 121.177 58.0381 121.719C57.3923 122.26 56.6943 122.703 55.9443 123.047L62.6631 133H57.2881L51.835 124.234H49.2568V133H44.4131V110.156H51.0693ZM50.7256 114.125H49.2568V120.297H50.8193C52.4235 120.297 53.5693 120.031 54.2568 119.5C54.9548 118.958 55.3037 118.167 55.3037 117.125C55.3037 116.042 54.9287 115.271 54.1787 114.812C53.4391 114.354 52.2881 114.125 50.7256 114.125ZM81.0381 124.234C81.0381 125.693 80.8402 126.984 80.4443 128.109C80.0589 129.234 79.4912 130.188 78.7412 130.969C78.0016 131.74 77.1058 132.323 76.0537 132.719C75.012 133.115 73.835 133.312 72.5225 133.312C71.2933 133.312 70.1631 133.115 69.1318 132.719C68.111 132.323 67.2204 131.74 66.46 130.969C65.71 130.188 65.1266 129.234 64.71 128.109C64.3037 126.984 64.1006 125.693 64.1006 124.234C64.1006 122.297 64.4443 120.656 65.1318 119.312C65.8193 117.969 66.7985 116.948 68.0693 116.25C69.3402 115.552 70.8558 115.203 72.6162 115.203C74.2516 115.203 75.6995 115.552 76.96 116.25C78.2308 116.948 79.2256 117.969 79.9443 119.312C80.6735 120.656 81.0381 122.297 81.0381 124.234ZM68.96 124.234C68.96 125.38 69.085 126.344 69.335 127.125C69.585 127.906 69.9756 128.495 70.5068 128.891C71.0381 129.286 71.7308 129.484 72.585 129.484C73.4287 129.484 74.111 129.286 74.6318 128.891C75.1631 128.495 75.5485 127.906 75.7881 127.125C76.0381 126.344 76.1631 125.38 76.1631 124.234C76.1631 123.078 76.0381 122.12 75.7881 121.359C75.5485 120.589 75.1631 120.01 74.6318 119.625C74.1006 119.24 73.4079 119.047 72.5537 119.047C71.2933 119.047 70.3766 119.479 69.8037 120.344C69.2412 121.208 68.96 122.505 68.96 124.234ZM92.335 129.516C92.8558 129.516 93.361 129.464 93.8506 129.359C94.3506 129.255 94.8454 129.125 95.335 128.969V132.516C94.8245 132.745 94.1891 132.932 93.4287 133.078C92.6787 133.234 91.8558 133.312 90.96 133.312C89.9183 133.312 88.9808 133.146 88.1475 132.812C87.3245 132.469 86.6735 131.88 86.1943 131.047C85.7256 130.203 85.4912 129.031 85.4912 127.531V119.109H83.21V117.094L85.835 115.5L87.21 111.812H90.2568V115.531H95.1475V119.109H90.2568V127.531C90.2568 128.198 90.4443 128.698 90.8193 129.031C91.2048 129.354 91.71 129.516 92.335 129.516ZM106.038 115.172C108.382 115.172 110.179 115.682 111.429 116.703C112.679 117.724 113.304 119.276 113.304 121.359V133H109.976L109.054 130.625H108.929C108.429 131.25 107.918 131.76 107.397 132.156C106.877 132.552 106.278 132.844 105.601 133.031C104.924 133.219 104.101 133.312 103.132 133.312C102.101 133.312 101.174 133.115 100.351 132.719C99.5381 132.323 98.8975 131.719 98.4287 130.906C97.96 130.083 97.7256 129.042 97.7256 127.781C97.7256 125.927 98.3766 124.562 99.6787 123.688C100.981 122.802 102.934 122.312 105.538 122.219L108.569 122.125V121.359C108.569 120.443 108.33 119.771 107.851 119.344C107.371 118.917 106.705 118.703 105.851 118.703C105.007 118.703 104.179 118.823 103.366 119.062C102.554 119.302 101.741 119.604 100.929 119.969L99.3506 116.75C100.278 116.26 101.314 115.875 102.46 115.594C103.616 115.312 104.809 115.172 106.038 115.172ZM108.569 124.906L106.726 124.969C105.184 125.01 104.111 125.286 103.507 125.797C102.913 126.307 102.616 126.979 102.616 127.812C102.616 128.542 102.83 129.062 103.257 129.375C103.684 129.677 104.241 129.828 104.929 129.828C105.95 129.828 106.809 129.526 107.507 128.922C108.215 128.318 108.569 127.458 108.569 126.344V124.906Z" fill="black"/>
<path d="M127.272 120.172H136.335V132.016C135.137 132.411 133.892 132.729 132.601 132.969C131.309 133.198 129.845 133.312 128.21 133.312C125.939 133.312 124.012 132.865 122.429 131.969C120.845 131.073 119.642 129.75 118.819 128C117.996 126.25 117.585 124.099 117.585 121.547C117.585 119.151 118.043 117.078 118.96 115.328C119.887 113.578 121.236 112.224 123.007 111.266C124.788 110.307 126.96 109.828 129.522 109.828C130.731 109.828 131.924 109.958 133.101 110.219C134.278 110.479 135.345 110.818 136.304 111.234L134.694 115.109C133.996 114.755 133.2 114.458 132.304 114.219C131.408 113.979 130.47 113.859 129.491 113.859C128.085 113.859 126.861 114.182 125.819 114.828C124.788 115.474 123.986 116.38 123.413 117.547C122.851 118.703 122.569 120.068 122.569 121.641C122.569 123.13 122.772 124.453 123.179 125.609C123.585 126.755 124.226 127.656 125.101 128.312C125.976 128.958 127.116 129.281 128.522 129.281C129.21 129.281 129.788 129.25 130.257 129.188C130.736 129.115 131.184 129.042 131.601 128.969V124.203H127.272V120.172ZM148.616 115.203C150.231 115.203 151.621 115.516 152.788 116.141C153.955 116.755 154.856 117.651 155.491 118.828C156.127 120.005 156.444 121.443 156.444 123.141V125.453H145.179C145.231 126.797 145.632 127.854 146.382 128.625C147.142 129.385 148.194 129.766 149.538 129.766C150.653 129.766 151.674 129.651 152.601 129.422C153.528 129.193 154.481 128.849 155.46 128.391V132.078C154.595 132.505 153.689 132.818 152.741 133.016C151.804 133.214 150.663 133.312 149.319 133.312C147.569 133.312 146.017 132.99 144.663 132.344C143.319 131.698 142.262 130.714 141.491 129.391C140.731 128.068 140.351 126.401 140.351 124.391C140.351 122.349 140.694 120.651 141.382 119.297C142.08 117.932 143.049 116.911 144.288 116.234C145.528 115.547 146.97 115.203 148.616 115.203ZM148.647 118.594C147.72 118.594 146.95 118.891 146.335 119.484C145.731 120.078 145.382 121.01 145.288 122.281H151.976C151.965 121.573 151.835 120.943 151.585 120.391C151.345 119.839 150.981 119.401 150.491 119.078C150.012 118.755 149.397 118.594 148.647 118.594ZM172.507 127.812C172.507 129 172.226 130.005 171.663 130.828C171.111 131.641 170.283 132.26 169.179 132.688C168.075 133.104 166.7 133.312 165.054 133.312C163.835 133.312 162.788 133.234 161.913 133.078C161.049 132.922 160.174 132.661 159.288 132.297V128.359C160.236 128.786 161.252 129.141 162.335 129.422C163.429 129.693 164.387 129.828 165.21 129.828C166.137 129.828 166.799 129.693 167.194 129.422C167.601 129.141 167.804 128.776 167.804 128.328C167.804 128.036 167.72 127.776 167.554 127.547C167.397 127.307 167.054 127.042 166.522 126.75C165.991 126.448 165.158 126.057 164.022 125.578C162.929 125.12 162.028 124.656 161.319 124.188C160.621 123.719 160.101 123.167 159.757 122.531C159.424 121.885 159.257 121.068 159.257 120.078C159.257 118.464 159.882 117.25 161.132 116.438C162.392 115.615 164.075 115.203 166.179 115.203C167.262 115.203 168.293 115.312 169.272 115.531C170.262 115.75 171.278 116.099 172.319 116.578L170.882 120.016C170.017 119.641 169.2 119.333 168.429 119.094C167.668 118.854 166.892 118.734 166.101 118.734C165.403 118.734 164.877 118.828 164.522 119.016C164.168 119.203 163.991 119.49 163.991 119.875C163.991 120.156 164.08 120.406 164.257 120.625C164.444 120.844 164.799 121.089 165.319 121.359C165.851 121.62 166.627 121.958 167.647 122.375C168.637 122.781 169.496 123.208 170.226 123.656C170.955 124.094 171.517 124.641 171.913 125.297C172.309 125.943 172.507 126.781 172.507 127.812ZM183.585 129.516C184.106 129.516 184.611 129.464 185.101 129.359C185.601 129.255 186.095 129.125 186.585 128.969V132.516C186.075 132.745 185.439 132.932 184.679 133.078C183.929 133.234 183.106 133.312 182.21 133.312C181.168 133.312 180.231 133.146 179.397 132.812C178.575 132.469 177.924 131.88 177.444 131.047C176.976 130.203 176.741 129.031 176.741 127.531V119.109H174.46V117.094L177.085 115.5L178.46 111.812H181.507V115.531H186.397V119.109H181.507V127.531C181.507 128.198 181.694 128.698 182.069 129.031C182.455 129.354 182.96 129.516 183.585 129.516ZM206.007 124.234C206.007 125.693 205.809 126.984 205.413 128.109C205.028 129.234 204.46 130.188 203.71 130.969C202.97 131.74 202.075 132.323 201.022 132.719C199.981 133.115 198.804 133.312 197.491 133.312C196.262 133.312 195.132 133.115 194.101 132.719C193.08 132.323 192.189 131.74 191.429 130.969C190.679 130.188 190.095 129.234 189.679 128.109C189.272 126.984 189.069 125.693 189.069 124.234C189.069 122.297 189.413 120.656 190.101 119.312C190.788 117.969 191.767 116.948 193.038 116.25C194.309 115.552 195.825 115.203 197.585 115.203C199.22 115.203 200.668 115.552 201.929 116.25C203.2 116.948 204.194 117.969 204.913 119.312C205.642 120.656 206.007 122.297 206.007 124.234ZM193.929 124.234C193.929 125.38 194.054 126.344 194.304 127.125C194.554 127.906 194.944 128.495 195.476 128.891C196.007 129.286 196.7 129.484 197.554 129.484C198.397 129.484 199.08 129.286 199.601 128.891C200.132 128.495 200.517 127.906 200.757 127.125C201.007 126.344 201.132 125.38 201.132 124.234C201.132 123.078 201.007 122.12 200.757 121.359C200.517 120.589 200.132 120.01 199.601 119.625C199.069 119.24 198.377 119.047 197.522 119.047C196.262 119.047 195.345 119.479 194.772 120.344C194.21 121.208 193.929 122.505 193.929 124.234ZM219.694 115.203C219.934 115.203 220.21 115.219 220.522 115.25C220.845 115.271 221.106 115.302 221.304 115.344L220.944 119.812C220.788 119.76 220.564 119.724 220.272 119.703C219.991 119.672 219.746 119.656 219.538 119.656C218.924 119.656 218.325 119.734 217.741 119.891C217.168 120.047 216.653 120.302 216.194 120.656C215.736 121 215.371 121.458 215.101 122.031C214.84 122.594 214.71 123.286 214.71 124.109V133H209.944V115.531H213.554L214.257 118.469H214.491C214.835 117.875 215.262 117.333 215.772 116.844C216.293 116.344 216.882 115.948 217.538 115.656C218.205 115.354 218.924 115.203 219.694 115.203Z" fill="#52B69A"/>
</svg>
