<svg width="21" height="22" viewBox="0 0 21 22" fill="none" xmlns="http://www.w3.org/2000/svg">
<path fill-rule="evenodd" clip-rule="evenodd" d="M3.6505 3.0255C2.625 4.05012 2.625 5.70038 2.625 9V12.5C2.625 15.7996 2.625 17.4499 3.6505 18.4745C4.676 19.4991 6.32538 19.5 9.625 19.5H11.375C14.6746 19.5 16.3249 19.5 17.3495 18.4745C18.3741 17.449 18.375 15.7996 18.375 12.5V9C18.375 5.70038 18.375 4.05012 17.3495 3.0255C16.324 2.00087 14.6746 2 11.375 2H9.625C6.32538 2 4.67512 2 3.6505 3.0255ZM7 8.34375C6.82595 8.34375 6.65903 8.41289 6.53596 8.53596C6.41289 8.65903 6.34375 8.82595 6.34375 9C6.34375 9.17405 6.41289 9.34097 6.53596 9.46404C6.65903 9.58711 6.82595 9.65625 7 9.65625H14C14.174 9.65625 14.341 9.58711 14.464 9.46404C14.5871 9.34097 14.6562 9.17405 14.6562 9C14.6562 8.82595 14.5871 8.65903 14.464 8.53596C14.341 8.41289 14.174 8.34375 14 8.34375H7ZM7 11.8438C6.82595 11.8438 6.65903 11.9129 6.53596 12.036C6.41289 12.159 6.34375 12.326 6.34375 12.5C6.34375 12.674 6.41289 12.841 6.53596 12.964C6.65903 13.0871 6.82595 13.1562 7 13.1562H11.375C11.549 13.1562 11.716 13.0871 11.839 12.964C11.9621 12.841 12.0312 12.674 12.0312 12.5C12.0312 12.326 11.9621 12.159 11.839 12.036C11.716 11.9129 11.549 11.8438 11.375 11.8438H7Z" fill="white"/>
</svg>
