<svg width="18" height="17" viewBox="0 0 18 17" fill="none" xmlns="http://www.w3.org/2000/svg">
<g clip-path="url(#clip0_233_5005)">
<path d="M7.17503 2.83404C4.96928 2.84112 3.79982 2.91054 3.04686 3.66279C2.2167 4.49367 2.2167 5.82958 2.2167 8.5C2.2167 11.1704 2.2167 12.507 3.04686 13.3365C3.87703 14.166 5.21224 14.1667 7.88336 14.1667H10.7167C13.3878 14.1667 14.7237 14.1667 15.5532 13.3365C16.3827 12.5063 16.3834 11.1711 16.3834 8.5C16.3834 5.82887 16.3834 4.49296 15.5532 3.6635C14.8002 2.91054 13.6308 2.84042 11.425 2.83333M9.30003 3.54167V2.125M12.1334 7.4375H6.4667M12.1334 9.91667H8.23753" stroke="#AFBFD4" stroke-width="1.5" stroke-linecap="round"/>
</g>
<defs>
<clipPath id="clip0_233_5005">
<rect width="17" height="17" fill="white" transform="matrix(-1 0 0 1 17.8 0)"/>
</clipPath>
</defs>
</svg>
