<svg width="18" height="17" viewBox="0 0 18 17" fill="none" xmlns="http://www.w3.org/2000/svg">
<path fill-rule="evenodd" clip-rule="evenodd" d="M9.10006 15.5833C13.0122 15.5833 16.1834 12.4121 16.1834 8.49996C16.1834 4.58783 13.0122 1.41663 9.10006 1.41663C5.18793 1.41663 2.01672 4.58783 2.01672 8.49996C2.01672 12.4121 5.18793 15.5833 9.10006 15.5833ZM9.63131 6.37496C9.63131 6.23406 9.57534 6.09894 9.47571 5.99931C9.37608 5.89968 9.24095 5.84371 9.10006 5.84371C8.95916 5.84371 8.82404 5.89968 8.72441 5.99931C8.62478 6.09894 8.56881 6.23406 8.56881 6.37496V7.96871H6.97506C6.83416 7.96871 6.69904 8.02468 6.59941 8.12431C6.49978 8.22394 6.44381 8.35906 6.44381 8.49996C6.44381 8.64086 6.49978 8.77598 6.59941 8.87561C6.69904 8.97524 6.83416 9.03121 6.97506 9.03121H8.56881V10.625C8.56881 10.7659 8.62478 10.901 8.72441 11.0006C8.82404 11.1002 8.95916 11.1562 9.10006 11.1562C9.24095 11.1562 9.37608 11.1002 9.47571 11.0006C9.57534 10.901 9.63131 10.7659 9.63131 10.625V9.03121H11.2251C11.366 9.03121 11.5011 8.97524 11.6007 8.87561C11.7003 8.77598 11.7563 8.64086 11.7563 8.49996C11.7563 8.35906 11.7003 8.22394 11.6007 8.12431C11.5011 8.02468 11.366 7.96871 11.2251 7.96871H9.63131V6.37496Z" fill="white"/>
</svg>
