<svg width="19" height="19" viewBox="0 0 19 19" fill="none" xmlns="http://www.w3.org/2000/svg">
<path d="M18.5542 7.15625H16.3324L15.7149 5.6125C15.0804 4.02533 13.5659 3 11.8563 3H7.14342C5.43416 3 3.91936 4.02533 3.28442 5.6125L2.66692 7.15625H0.445549C0.155724 7.15625 -0.0569123 7.42863 0.0135955 7.70955L0.236252 8.60018C0.285607 8.79834 0.463732 8.9375 0.668205 8.9375H1.41299C0.914611 9.37279 0.593615 10.0055 0.593615 10.7188V12.5C0.593615 13.0982 0.822209 13.6381 1.18737 14.056V16.0625C1.18737 16.7182 1.71914 17.25 2.37487 17.25H3.56237C4.21809 17.25 4.74987 16.7182 4.74987 16.0625V14.875H14.2499V16.0625C14.2499 16.7182 14.7816 17.25 15.4374 17.25H16.6249C17.2806 17.25 17.8124 16.7182 17.8124 16.0625V14.056C18.1775 13.6385 18.4061 13.0986 18.4061 12.5V10.7188C18.4061 10.0055 18.0851 9.37279 17.5871 8.9375H18.3319C18.5364 8.9375 18.7145 8.79834 18.7639 8.60018L18.9865 7.70955C19.0566 7.42863 18.844 7.15625 18.5542 7.15625ZM5.48946 6.49459C5.75998 5.81846 6.41496 5.375 7.14342 5.375H11.8563C12.5848 5.375 13.2397 5.81846 13.5103 6.49459L14.2499 8.34375H4.74987L5.48946 6.49459ZM3.56237 12.4926C2.84987 12.4926 2.37487 12.0191 2.37487 11.3088C2.37487 10.5985 2.84987 10.125 3.56237 10.125C4.27487 10.125 5.34362 11.1904 5.34362 11.9007C5.34362 12.611 4.27487 12.4926 3.56237 12.4926ZM15.4374 12.4926C14.7249 12.4926 13.6561 12.611 13.6561 11.9007C13.6561 11.1904 14.7249 10.125 15.4374 10.125C16.1499 10.125 16.6249 10.5985 16.6249 11.3088C16.6249 12.0191 16.1499 12.4926 15.4374 12.4926Z" fill="white"/>
</svg>
