<svg width="22" height="22" viewBox="0 0 22 22" fill="none" xmlns="http://www.w3.org/2000/svg">
<path fill-rule="evenodd" clip-rule="evenodd" d="M14.3692 0.927143C13.4138 0.777858 12.5416 0.892572 11.8078 1.29329C11.0692 1.694 10.5066 2.36186 10.1311 3.25443C9.78534 4.07314 9.68477 4.873 9.8482 5.62571C9.97234 6.20714 10.2489 6.73829 10.6622 7.21286C10.7706 7.33857 10.8021 7.51143 10.7313 7.66229L10.4799 8.21386C10.4505 8.28093 10.4396 8.35468 10.4485 8.42739C10.4573 8.50009 10.4855 8.56909 10.5302 8.62714C10.9796 9.23529 11.2782 9.95029 11.3898 10.7061C11.4196 10.9104 11.5893 11.0723 11.7968 11.0723H12.0608C12.7051 11.0723 13.4028 11.2656 14.0408 11.5971C14.2529 11.7071 14.5216 11.6286 14.6175 11.4086C14.8787 10.8156 15.1224 10.215 15.3482 9.60771C15.3785 9.53302 15.4295 9.46852 15.4952 9.42177C15.5609 9.37501 15.6385 9.34794 15.7191 9.34371C16.3476 9.30757 16.9212 9.13472 17.4241 8.81886C18.0762 8.41029 18.5791 7.77857 18.9232 6.96143C19.2846 6.105 19.3773 5.27057 19.1841 4.49114C18.9908 3.71014 18.5193 3.02343 17.8169 2.44829C17.7694 2.40925 17.7135 2.38189 17.6535 2.36842C17.5935 2.35494 17.5312 2.35573 17.4716 2.37071C17.412 2.38569 17.3568 2.41444 17.3103 2.45466C17.2638 2.49488 17.2274 2.54544 17.2041 2.60229L17.1569 2.71543C17.0296 3.01714 16.9055 3.33614 16.7908 3.63C16.7059 3.84529 16.6273 4.048 16.5551 4.22086C16.3712 4.66872 16.2046 5.01443 16.0161 5.25957C15.8353 5.49529 15.6562 5.61471 15.4456 5.65243C15.2193 5.69014 14.8925 5.64929 14.4006 5.42143C13.9041 5.192 13.6636 4.97829 13.5521 4.79443C13.4499 4.62629 13.4263 4.433 13.4861 4.15957C13.5489 3.87043 13.6998 3.531 13.9088 3.10043L14.0439 2.82543C14.2671 2.38212 14.4751 1.93138 14.6678 1.474C14.6921 1.41892 14.7034 1.35898 14.7009 1.29881C14.6984 1.23864 14.6821 1.17986 14.6532 1.12701C14.6244 1.07416 14.5837 1.02864 14.5345 0.993987C14.4852 0.959332 14.4287 0.936462 14.3692 0.927143ZM9.19449 12.5479L8.98391 13.035H12.0608C12.9062 13.035 14.5986 13.8836 14.5986 15.5744C14.5986 17.2653 12.8968 21.1357 11.0975 21.1357C9.24949 21.1357 5.78606 20.7931 3.88306 20.5071C3.18848 20.4034 2.71863 19.8063 2.71863 19.1039V15.169C2.71871 14.8807 2.79808 14.598 2.94806 14.3519L5.96834 9.39243C6.10791 9.16462 6.31332 8.98452 6.55742 8.87593C6.80153 8.76735 7.07283 8.73539 7.33549 8.78429C7.72227 8.85793 8.08755 9.01755 8.40434 9.25136C8.72113 9.48517 8.98132 9.78719 9.16568 10.1351C9.35004 10.483 9.45385 10.8679 9.46944 11.2613C9.48504 11.6547 9.41201 12.0466 9.25577 12.408L9.19449 12.5479Z" fill="white"/>
</svg>
