<svg width="18" height="17" viewBox="0 0 18 17" fill="none" xmlns="http://www.w3.org/2000/svg">
<path d="M8.60013 9.29688C8.70446 9.29695 8.80647 9.32774 8.89341 9.38542C8.98036 9.44309 9.04839 9.52509 9.08904 9.62118C9.12968 9.71727 9.14113 9.8232 9.12195 9.92576C9.10278 10.0283 9.05383 10.123 8.98121 10.1979L6.14788 13.1197C6.09836 13.1707 6.03912 13.2113 5.97367 13.2389C5.90821 13.2666 5.83786 13.2809 5.7668 13.2809C5.69573 13.2809 5.62538 13.2666 5.55992 13.2389C5.49447 13.2113 5.43523 13.1707 5.38571 13.1197L2.55238 10.1979C2.47976 10.123 2.43081 10.0283 2.41164 9.92576C2.39246 9.8232 2.40391 9.71727 2.44455 9.62118C2.4852 9.52509 2.55323 9.44309 2.64018 9.38542C2.72712 9.32774 2.82913 9.29695 2.93346 9.29688H5.23555V4.25C5.23555 4.1091 5.29152 3.97398 5.39114 3.87435C5.49077 3.77472 5.6259 3.71875 5.7668 3.71875C5.90769 3.71875 6.04282 3.77472 6.14245 3.87435C6.24207 3.97398 6.29805 4.1091 6.29805 4.25V9.29688H8.60013Z" fill="white"/>
<path d="M14.2668 7.7031C14.3711 7.70303 14.4731 7.67224 14.56 7.61456C14.647 7.55689 14.715 7.47489 14.7557 7.3788C14.7963 7.28271 14.8078 7.17677 14.7886 7.07422C14.7694 6.97166 14.7205 6.87702 14.6478 6.8021L11.8145 3.88023C11.765 3.82925 11.7058 3.78872 11.6403 3.76105C11.5748 3.73338 11.5045 3.71912 11.4334 3.71912C11.3624 3.71912 11.292 3.73338 11.2266 3.76105C11.1611 3.78872 11.1019 3.82925 11.0523 3.88023L8.219 6.8021C8.14639 6.87702 8.09744 6.97166 8.07826 7.07422C8.05909 7.17677 8.07054 7.28271 8.11118 7.3788C8.15182 7.47489 8.21986 7.55689 8.30681 7.61456C8.39375 7.67224 8.49575 7.70303 8.60009 7.7031H10.9022V12.75C10.9022 12.8909 10.9581 13.026 11.0578 13.1256C11.1574 13.2253 11.2925 13.2812 11.4334 13.2812C11.5743 13.2812 11.7094 13.2253 11.8091 13.1256C11.9087 13.026 11.9647 12.8909 11.9647 12.75V7.7031H14.2668Z" fill="white"/>
</svg>
