<svg width="152" height="33" viewBox="0 0 152 33" fill="none" xmlns="http://www.w3.org/2000/svg">
<path d="M0.902588 8.88525C1.32762 8.42222 2.01609 8.42191 2.44067 8.88525L9.17212 16.2329V16.7251C9.17234 20.5299 12.0086 23.6253 15.4944 23.6255C16.1471 23.6254 16.7932 23.5158 17.4084 23.3032L14.0735 19.6626C14.4412 19.8491 14.8491 19.9546 15.2786 19.9546C15.8815 19.9544 16.4421 19.749 16.9084 19.3979L20.0559 22.8345C20.5568 23.3814 20.4532 24.2972 19.845 24.6938C18.5337 25.5481 17.0289 26.0004 15.4944 26.0005C10.9643 26.0003 7.25029 22.1102 7.00903 17.23L0.902588 10.5649C0.477964 10.1011 0.478056 9.34886 0.902588 8.88525ZM14.9602 7.00049C19.4335 6.93034 23.2541 10.7444 23.5627 15.6157C23.7329 18.2998 22.8572 20.8412 21.2161 22.6997L19.678 21.021C20.9213 19.5929 21.5616 17.6327 21.3762 15.5767C21.0513 11.9689 18.1232 9.22344 14.8049 9.38037C14.202 9.40888 13.611 9.53077 13.0442 9.7417L16.7913 13.8081C16.3491 13.508 15.8323 13.3327 15.2786 13.3325C14.7064 13.3325 14.1735 13.5198 13.7219 13.8384L10.4192 10.2339C9.92371 9.69288 10.0197 8.78838 10.6155 8.38525C11.0651 8.08115 11.5438 7.82157 12.0364 7.61475C12.9706 7.22266 13.9538 7.01628 14.9602 7.00049ZM15.2776 14.772C16.1949 14.772 16.9385 15.6098 16.9387 16.6431C16.9387 17.6765 16.195 18.5151 15.2776 18.5151C14.3604 18.5149 13.6165 17.6764 13.6165 16.6431C13.6167 15.61 14.3605 14.7722 15.2776 14.772ZM4.32837 7.34717C4.75331 6.88383 5.44174 6.88393 5.86646 7.34717L12.7844 14.897C12.5039 15.4043 12.3391 16.0023 12.3391 16.644C12.3392 17.1672 12.451 17.6603 12.6428 18.1001L4.32837 9.02588C3.90436 8.56235 3.90406 7.81097 4.32837 7.34717Z" fill="#52B69A"/>
<path d="M33.1365 9.29492C34.5616 9.29492 35.7361 9.4668 36.6599 9.81055C37.5909 10.1543 38.282 10.6735 38.7332 11.3682C39.1843 12.0628 39.4099 12.9401 39.4099 14C39.4099 14.7161 39.2738 15.3428 39.0017 15.8799C38.7296 16.417 38.3715 16.8717 37.9275 17.2441C37.4835 17.6165 37.0037 17.9209 36.488 18.1572L41.1072 25H37.4119L33.6628 18.9736H31.8904V25H28.5603V9.29492H33.1365ZM32.9001 12.0234H31.8904V16.2666H32.9646C34.0675 16.2666 34.8552 16.084 35.3279 15.7188C35.8077 15.3464 36.0476 14.8021 36.0476 14.0859C36.0476 13.3411 35.7898 12.8112 35.2742 12.4961C34.7657 12.181 33.9744 12.0234 32.9001 12.0234ZM53.74 18.9736C53.74 19.9762 53.6039 20.8643 53.3318 21.6377C53.0668 22.4111 52.6765 23.0664 52.1609 23.6035C51.6524 24.1335 51.0365 24.5345 50.3132 24.8066C49.5971 25.0788 48.7878 25.2148 47.8855 25.2148C47.0404 25.2148 46.2634 25.0788 45.5544 24.8066C44.8526 24.5345 44.2403 24.1335 43.7175 23.6035C43.2019 23.0664 42.8009 22.4111 42.5144 21.6377C42.2351 20.8643 42.0955 19.9762 42.0955 18.9736C42.0955 17.6416 42.3318 16.5137 42.8044 15.5898C43.2771 14.666 43.9503 13.9642 44.824 13.4844C45.6977 13.0046 46.7397 12.7646 47.95 12.7646C49.0743 12.7646 50.0697 13.0046 50.9363 13.4844C51.81 13.9642 52.4939 14.666 52.988 15.5898C53.4893 16.5137 53.74 17.6416 53.74 18.9736ZM45.4363 18.9736C45.4363 19.7614 45.5222 20.4238 45.6941 20.9609C45.866 21.498 46.1345 21.9027 46.4998 22.1748C46.865 22.4469 47.3412 22.583 47.9285 22.583C48.5085 22.583 48.9776 22.4469 49.3357 22.1748C49.7009 21.9027 49.9659 21.498 50.1306 20.9609C50.3025 20.4238 50.3884 19.7614 50.3884 18.9736C50.3884 18.1787 50.3025 17.5199 50.1306 16.9971C49.9659 16.4671 49.7009 16.0697 49.3357 15.8047C48.9705 15.5397 48.4942 15.4072 47.907 15.4072C47.0404 15.4072 46.4102 15.7044 46.0164 16.2988C45.6296 16.8932 45.4363 17.7848 45.4363 18.9736ZM61.5066 22.6045C61.8647 22.6045 62.212 22.5687 62.5486 22.4971C62.8923 22.4255 63.2325 22.3359 63.5691 22.2285V24.667C63.2182 24.8245 62.7813 24.9535 62.2585 25.0537C61.7429 25.1611 61.1772 25.2148 60.5613 25.2148C59.8451 25.2148 59.2006 25.1003 58.6277 24.8711C58.0619 24.6348 57.6143 24.2301 57.2849 23.6572C56.9626 23.0771 56.8015 22.2715 56.8015 21.2402V15.4502H55.2332V14.0645L57.0378 12.9688L57.9832 10.4336H60.0779V12.9902H63.4402V15.4502H60.0779V21.2402C60.0779 21.6986 60.2068 22.0423 60.4646 22.2715C60.7296 22.4935 61.0769 22.6045 61.5066 22.6045ZM70.9275 12.7432C72.5388 12.7432 73.7742 13.0941 74.6335 13.7959C75.4929 14.4977 75.9226 15.5648 75.9226 16.9971V25H73.6345L73.0007 23.3672H72.9148C72.571 23.7969 72.2201 24.1478 71.8621 24.4199C71.504 24.6921 71.0922 24.8926 70.6267 25.0215C70.1612 25.1504 69.5955 25.2148 68.9294 25.2148C68.2205 25.2148 67.5831 25.0788 67.0173 24.8066C66.4587 24.5345 66.0183 24.1191 65.696 23.5605C65.3738 22.9948 65.2126 22.2786 65.2126 21.4121C65.2126 20.1374 65.6602 19.1992 66.5554 18.5977C67.4506 17.9889 68.7934 17.6523 70.5837 17.5879L72.6677 17.5234V16.9971C72.6677 16.3669 72.503 15.9049 72.1736 15.6113C71.8442 15.3177 71.3858 15.1709 70.7986 15.1709C70.2185 15.1709 69.6492 15.2533 69.0906 15.418C68.532 15.5827 67.9734 15.7904 67.4148 16.041L66.3298 13.8281C66.9672 13.4915 67.6798 13.2266 68.4675 13.0332C69.2625 12.8398 70.0824 12.7432 70.9275 12.7432ZM72.6677 19.4355L71.4001 19.4785C70.3403 19.5072 69.6026 19.6969 69.1873 20.0479C68.7791 20.3988 68.575 20.8607 68.575 21.4336C68.575 21.9349 68.7218 22.293 69.0154 22.5078C69.309 22.7155 69.6921 22.8193 70.1648 22.8193C70.8666 22.8193 71.4574 22.6117 71.9373 22.1963C72.4242 21.7809 72.6677 21.1901 72.6677 20.4238V19.4355ZM85.5261 16.1807H91.7566V24.3232C90.933 24.5954 90.0772 24.8138 89.1892 24.9785C88.3012 25.1361 87.295 25.2148 86.1707 25.2148C84.6095 25.2148 83.2846 24.9069 82.196 24.291C81.1075 23.6751 80.2804 22.7656 79.7146 21.5625C79.1488 20.3594 78.866 18.8805 78.866 17.126C78.866 15.4788 79.1811 14.0537 79.8113 12.8506C80.4486 11.6475 81.3761 10.7165 82.5935 10.0576C83.8181 9.39876 85.3113 9.06934 87.073 9.06934C87.9037 9.06934 88.7237 9.15885 89.533 9.33789C90.3422 9.51693 91.0763 9.74967 91.7351 10.0361L90.6287 12.7002C90.1488 12.4567 89.601 12.2526 88.9851 12.0879C88.3692 11.9232 87.7247 11.8408 87.0515 11.8408C86.0847 11.8408 85.2432 12.0628 84.5271 12.5068C83.8181 12.9508 83.2667 13.5739 82.8728 14.376C82.4861 15.1709 82.2927 16.109 82.2927 17.1904C82.2927 18.2145 82.4324 19.124 82.7117 19.9189C82.991 20.7067 83.4314 21.3262 84.033 21.7773C84.6345 22.2214 85.4187 22.4434 86.3855 22.4434C86.8582 22.4434 87.2556 22.4219 87.5779 22.3789C87.9073 22.3288 88.2153 22.2786 88.5017 22.2285V18.9521H85.5261V16.1807ZM100.2 12.7646C101.31 12.7646 102.266 12.9795 103.068 13.4092C103.87 13.8317 104.49 14.4476 104.927 15.2568C105.363 16.0661 105.582 17.0544 105.582 18.2217V19.8115H97.8367C97.8725 20.7354 98.1482 21.4622 98.6638 21.9922C99.1866 22.515 99.9099 22.7764 100.834 22.7764C101.6 22.7764 102.302 22.6976 102.939 22.54C103.577 22.3825 104.232 22.1462 104.905 21.8311V24.3662C104.311 24.6598 103.688 24.8747 103.036 25.0107C102.391 25.1468 101.607 25.2148 100.683 25.2148C99.4802 25.2148 98.4132 24.9928 97.4822 24.5488C96.5583 24.1048 95.8315 23.4281 95.3015 22.5186C94.7787 21.609 94.5173 20.4632 94.5173 19.0811C94.5173 17.6774 94.7537 16.5101 95.2263 15.5791C95.7061 14.641 96.3722 13.9391 97.2244 13.4736C98.0766 13.001 99.0684 12.7646 100.2 12.7646ZM100.221 15.0957C99.5841 15.0957 99.0541 15.2998 98.6316 15.708C98.2162 16.1162 97.9763 16.7572 97.9119 17.6309H102.51C102.502 17.1439 102.413 16.7106 102.241 16.3311C102.076 15.9515 101.826 15.6507 101.489 15.4287C101.16 15.2067 100.737 15.0957 100.221 15.0957ZM116.625 21.4336C116.625 22.25 116.431 22.9411 116.045 23.5068C115.665 24.0654 115.096 24.4915 114.337 24.7852C113.578 25.0716 112.632 25.2148 111.501 25.2148C110.663 25.2148 109.943 25.1611 109.342 25.0537C108.747 24.9463 108.146 24.7673 107.537 24.5166V21.8096C108.189 22.1032 108.887 22.3467 109.632 22.54C110.384 22.7262 111.042 22.8193 111.608 22.8193C112.246 22.8193 112.7 22.7262 112.972 22.54C113.252 22.3467 113.391 22.096 113.391 21.7881C113.391 21.5876 113.334 21.4085 113.219 21.251C113.112 21.0863 112.876 20.9036 112.51 20.7031C112.145 20.4954 111.572 20.2269 110.792 19.8975C110.04 19.5824 109.42 19.2637 108.933 18.9414C108.454 18.6191 108.095 18.2396 107.859 17.8027C107.63 17.3587 107.515 16.7965 107.515 16.1162C107.515 15.0062 107.945 14.1719 108.804 13.6133C109.671 13.0475 110.828 12.7646 112.274 12.7646C113.019 12.7646 113.728 12.8398 114.401 12.9902C115.081 13.1406 115.78 13.3805 116.496 13.71L115.508 16.0732C114.913 15.8154 114.351 15.6042 113.821 15.4395C113.298 15.2747 112.765 15.1924 112.22 15.1924C111.741 15.1924 111.379 15.2568 111.135 15.3857C110.892 15.5146 110.77 15.7116 110.77 15.9766C110.77 16.1699 110.831 16.3418 110.953 16.4922C111.082 16.6426 111.325 16.8109 111.683 16.9971C112.049 17.1761 112.582 17.4089 113.284 17.6953C113.964 17.9746 114.555 18.2682 115.056 18.5762C115.558 18.877 115.944 19.2529 116.217 19.7041C116.489 20.1481 116.625 20.7246 116.625 21.4336ZM124.241 22.6045C124.599 22.6045 124.946 22.5687 125.283 22.4971C125.627 22.4255 125.967 22.3359 126.303 22.2285V24.667C125.953 24.8245 125.516 24.9535 124.993 25.0537C124.477 25.1611 123.912 25.2148 123.296 25.2148C122.58 25.2148 121.935 25.1003 121.362 24.8711C120.796 24.6348 120.349 24.2301 120.019 23.6572C119.697 23.0771 119.536 22.2715 119.536 21.2402V15.4502H117.968V14.0645L119.772 12.9688L120.718 10.4336H122.812V12.9902H126.175V15.4502H122.812V21.2402C122.812 21.6986 122.941 22.0423 123.199 22.2715C123.464 22.4935 123.811 22.6045 124.241 22.6045ZM139.656 18.9736C139.656 19.9762 139.52 20.8643 139.248 21.6377C138.983 22.4111 138.593 23.0664 138.077 23.6035C137.568 24.1335 136.953 24.5345 136.229 24.8066C135.513 25.0788 134.704 25.2148 133.802 25.2148C132.956 25.2148 132.179 25.0788 131.47 24.8066C130.769 24.5345 130.156 24.1335 129.634 23.6035C129.118 23.0664 128.717 22.4111 128.43 21.6377C128.151 20.8643 128.011 19.9762 128.011 18.9736C128.011 17.6416 128.248 16.5137 128.72 15.5898C129.193 14.666 129.866 13.9642 130.74 13.4844C131.614 13.0046 132.656 12.7646 133.866 12.7646C134.99 12.7646 135.986 13.0046 136.852 13.4844C137.726 13.9642 138.41 14.666 138.904 15.5898C139.405 16.5137 139.656 17.6416 139.656 18.9736ZM131.352 18.9736C131.352 19.7614 131.438 20.4238 131.61 20.9609C131.782 21.498 132.051 21.9027 132.416 22.1748C132.781 22.4469 133.257 22.583 133.844 22.583C134.425 22.583 134.894 22.4469 135.252 22.1748C135.617 21.9027 135.882 21.498 136.047 20.9609C136.219 20.4238 136.304 19.7614 136.304 18.9736C136.304 18.1787 136.219 17.5199 136.047 16.9971C135.882 16.4671 135.617 16.0697 135.252 15.8047C134.886 15.5397 134.41 15.4072 133.823 15.4072C132.956 15.4072 132.326 15.7044 131.932 16.2988C131.546 16.8932 131.352 17.7848 131.352 18.9736ZM149.066 12.7646C149.231 12.7646 149.421 12.7754 149.635 12.7969C149.858 12.8112 150.037 12.8327 150.173 12.8613L149.926 15.9336C149.818 15.8978 149.664 15.8727 149.464 15.8584C149.27 15.8369 149.102 15.8262 148.959 15.8262C148.536 15.8262 148.124 15.8799 147.723 15.9873C147.33 16.0947 146.975 16.2702 146.66 16.5137C146.345 16.75 146.094 17.0651 145.908 17.459C145.729 17.8457 145.639 18.3219 145.639 18.8877V25H142.363V12.9902H144.844L145.328 15.0098H145.489C145.725 14.6016 146.019 14.2292 146.37 13.8926C146.728 13.5488 147.133 13.2767 147.584 13.0762C148.042 12.8685 148.536 12.7646 149.066 12.7646Z" fill="#2D3748"/>
</svg>
