<svg width="128" height="128" viewBox="0 0 128 128" fill="none" xmlns="http://www.w3.org/2000/svg">
<g filter="url(#filter0_dd_387_531)">
<rect x="4" y="3" width="120" height="120" rx="35" fill="#F6FAF9"/>
<path d="M14.7842 38.2501C16.4976 36.5912 19.273 36.5912 20.9854 38.2501L48.124 64.545V66.3058C48.1244 79.9231 59.5593 91.0019 73.6133 91.0021C76.2463 91.002 78.8503 90.6093 81.332 89.8478L67.8926 76.8253C69.3729 77.4903 71.0132 77.8634 72.7412 77.8634C75.1726 77.8634 77.4318 77.1294 79.3125 75.8732L92.0049 88.172C94.0253 90.1297 93.6058 93.4062 91.1523 94.8253C85.8652 97.8832 79.8004 99.5 73.6133 99.5001C55.3494 99.4999 40.3768 85.5803 39.4043 68.1144L14.7842 44.2589C13.072 42.5987 13.0721 39.9093 14.7842 38.2501ZM71.4609 31.504C89.4958 31.2523 104.896 44.9019 106.141 62.3361C106.827 71.9426 103.297 81.0371 96.6797 87.6886L90.4795 81.6808C95.4927 76.5694 98.0757 69.5544 97.3281 62.1954C96.0179 49.2833 84.2119 39.4587 70.833 40.0216C68.4016 40.1236 66.022 40.5574 63.7363 41.3126L78.7979 55.8312C77.0254 54.7748 74.9544 54.1671 72.7412 54.1671C70.4344 54.1671 68.2827 54.8285 66.4619 55.9689L53.1533 43.0753C51.1552 41.139 51.5418 37.9027 53.9443 36.4601C55.7575 35.3714 57.6846 34.4436 59.6709 33.7032C63.4385 32.2992 67.4017 31.5604 71.4609 31.504ZM72.7422 59.3185C76.4405 59.3187 79.4384 62.3164 79.4385 66.0148C79.4385 69.7132 76.4406 72.7118 72.7422 72.712C69.0436 72.712 66.0449 69.7134 66.0449 66.0148C66.045 62.3163 69.0437 59.3185 72.7422 59.3185ZM28.5986 32.7443C30.312 31.0856 33.0875 31.0856 34.7998 32.7443L62.6807 59.7579C61.5487 61.574 60.8926 63.7182 60.8926 66.0157C60.8926 67.8749 61.3227 69.6335 62.0859 71.1993L28.5986 38.7531C26.8876 37.0939 26.8865 34.4045 28.5986 32.7443Z" fill="#52B69A"/>
</g>
<defs>
<filter id="filter0_dd_387_531" x="0" y="0" width="128" height="128" filterUnits="userSpaceOnUse" color-interpolation-filters="sRGB">
<feFlood flood-opacity="0" result="BackgroundImageFix"/>
<feColorMatrix in="SourceAlpha" type="matrix" values="0 0 0 0 0 0 0 0 0 0 0 0 0 0 0 0 0 0 127 0" result="hardAlpha"/>
<feMorphology radius="1" operator="dilate" in="SourceAlpha" result="effect1_dropShadow_387_531"/>
<feOffset dy="1"/>
<feGaussianBlur stdDeviation="1.5"/>
<feColorMatrix type="matrix" values="0 0 0 0 0 0 0 0 0 0 0 0 0 0 0 0 0 0 0.15 0"/>
<feBlend mode="normal" in2="BackgroundImageFix" result="effect1_dropShadow_387_531"/>
<feColorMatrix in="SourceAlpha" type="matrix" values="0 0 0 0 0 0 0 0 0 0 0 0 0 0 0 0 0 0 127 0" result="hardAlpha"/>
<feOffset dy="1"/>
<feGaussianBlur stdDeviation="1"/>
<feColorMatrix type="matrix" values="0 0 0 0 0 0 0 0 0 0 0 0 0 0 0 0 0 0 0.3 0"/>
<feBlend mode="normal" in2="effect1_dropShadow_387_531" result="effect2_dropShadow_387_531"/>
<feBlend mode="normal" in="SourceGraphic" in2="effect2_dropShadow_387_531" result="shape"/>
</filter>
</defs>
</svg>
