<svg width="216" height="173" viewBox="0 0 216 173" fill="none" xmlns="http://www.w3.org/2000/svg">
<rect width="215.708" height="172.386" rx="15" fill="#52B69A"/>
<mask id="mask0_155_1579" style="mask-type:alpha" maskUnits="userSpaceOnUse" x="0" y="0" width="216" height="173">
<rect width="215.708" height="172.386" rx="15" fill="#4FD1C5"/>
</mask>
<g mask="url(#mask0_155_1579)">
<g opacity="0.2">
<path d="M217.935 -8.14471C314.783 -8.14455 393.316 72.555 393.316 172.132C393.316 271.708 314.783 352.407 217.935 352.407C121.087 352.407 42.5534 271.708 42.5532 172.132C42.5532 72.5549 121.087 -8.14471 217.935 -8.14471Z" stroke="white"/>
<path d="M217.935 16.2959C301.65 16.2959 369.537 86.0532 369.537 172.132C369.537 258.21 301.649 327.967 217.935 327.967C134.22 327.967 66.3323 258.21 66.3321 172.132C66.3321 86.0533 134.22 16.296 217.935 16.2959Z" stroke="white"/>
<path d="M217.935 44.1075C286.706 44.1075 342.479 101.413 342.479 172.131C342.479 242.85 286.706 300.155 217.935 300.155C149.164 300.155 93.3908 242.85 93.3908 172.131C93.391 101.413 149.164 44.1076 217.935 44.1075Z" stroke="white"/>
<path d="M217.935 71.9194C271.762 71.9194 315.42 116.773 315.42 172.131C315.42 227.49 271.762 272.343 217.935 272.343C164.108 272.343 120.45 227.49 120.45 172.131C120.45 116.773 164.108 71.9194 217.935 71.9194Z" stroke="white"/>
<path d="M217.934 98.8879C257.27 98.8879 289.181 131.667 289.181 172.131C289.181 212.595 257.27 245.374 217.934 245.374C178.599 245.374 146.688 212.595 146.688 172.131C146.688 131.667 178.599 98.8882 217.934 98.8879Z" stroke="white"/>
<path d="M217.935 123.329C244.138 123.329 265.403 145.165 265.403 172.131C265.403 199.097 244.138 220.934 217.935 220.934C191.732 220.934 170.467 199.097 170.467 172.131C170.467 145.165 191.732 123.329 217.935 123.329Z" stroke="white"/>
<path d="M217.935 142.883C233.63 142.883 246.377 155.965 246.377 172.131C246.377 188.297 233.63 201.379 217.935 201.379C202.239 201.379 189.492 188.297 189.492 172.131C189.492 155.965 202.239 142.883 217.935 142.883Z" stroke="white"/>
</g>
</g>
</svg>
