<svg width="18" height="17" viewBox="0 0 18 17" fill="none" xmlns="http://www.w3.org/2000/svg">
<path d="M5.76917 2.83337C5.5392 2.83335 5.31267 2.88932 5.10917 2.99644C4.90566 3.10356 4.7313 3.25861 4.60113 3.44821L4.5395 3.54737L2.00367 7.98508C1.90187 8.16327 1.84 8.36146 1.82234 8.56592L1.81667 8.68846V11.8745C1.81666 12.0502 1.84933 12.2244 1.913 12.3881L1.96613 12.5085L2.75805 14.0916C2.86697 14.3098 3.03034 14.4961 3.23235 14.6326C3.43437 14.7691 3.6682 14.8511 3.91121 14.8708L4.02525 14.875H5.35834C5.71575 14.8752 6.05999 14.7402 6.32206 14.4971C6.58413 14.2541 6.74466 13.921 6.77146 13.5646L6.775 13.4584H11.025C11.0249 13.8158 11.1599 14.16 11.4029 14.4221C11.6459 14.6842 11.979 14.8447 12.3354 14.8715L12.4417 14.875H13.7748C14.0183 14.8749 14.2577 14.8121 14.4699 14.6925C14.6821 14.5728 14.8598 14.4005 14.986 14.1922L15.042 14.0916L15.8339 12.5078C15.9123 12.3507 15.9608 12.1804 15.977 12.0056L15.9833 11.8745V8.68846C15.9833 8.4835 15.9389 8.28098 15.853 8.09487L15.7963 7.98508L13.2605 3.54737C13.1464 3.34768 12.9854 3.17877 12.7914 3.05523C12.5974 2.93169 12.3762 2.85725 12.147 2.83833L12.0308 2.83337H5.76917ZM5.76917 4.25004H12.0308L14.5667 8.68846V11.8745L13.7748 13.4584H12.4417V12.8209C12.4418 12.6289 12.371 12.4436 12.2429 12.3006C12.1148 12.1576 11.9384 12.0669 11.7475 12.046L11.6625 12.0417H6.1375C5.94551 12.0416 5.76023 12.1124 5.61722 12.2405C5.47421 12.3686 5.38353 12.545 5.36259 12.7359L5.35834 12.8209V13.4584H4.02525L3.23334 11.8745V8.68846L5.76917 4.25004ZM5.67425 7.86608C5.50628 7.78247 5.31199 7.76893 5.13404 7.82843C4.95608 7.88792 4.80901 8.01559 4.72509 8.18342C4.64294 8.35185 4.63017 8.5458 4.68951 8.72355C4.74885 8.90131 4.87557 9.04869 5.04242 9.134C6.20692 9.71483 7.61792 9.91671 8.9 9.91671C10.2076 9.91671 11.5704 9.71696 12.7548 9.13542C12.9216 9.04964 13.0483 8.90219 13.1081 8.72441C13.1679 8.54664 13.156 8.35255 13.0749 8.18342C12.9955 8.02887 12.8626 7.9085 12.701 7.84476C12.5394 7.78103 12.3601 7.77828 12.1966 7.83704L12.0075 7.9185L11.8346 7.98721L11.6795 8.04387L11.4953 8.10479L11.2814 8.16996L11.0406 8.23442L10.7735 8.29817L10.4824 8.35625C9.96038 8.45189 9.43074 8.50002 8.9 8.50004C7.82617 8.50004 6.656 8.33571 5.67425 7.86608Z" fill="#AFBFD4"/>
</svg>
