<svg width="24" height="24" viewBox="0 0 24 24" fill="none" xmlns="http://www.w3.org/2000/svg">
<path fill-rule="evenodd" clip-rule="evenodd" d="M8.75 2H9.75C12.578 2 13.993 2 14.871 2.879C15.75 3.757 15.75 5.172 15.75 8V16.25H17.321C18.525 16.25 19.5 17.225 19.5 18.429V18.5C19.5 18.6989 19.579 18.8897 19.7197 19.0303C19.8603 19.171 20.0511 19.25 20.25 19.25C20.4489 19.25 20.6397 19.171 20.7803 19.0303C20.921 18.8897 21 18.6989 21 18.5V13.75L19.776 13.342C19.4773 13.2425 19.2174 13.0515 19.0333 12.7961C18.8491 12.5407 18.75 12.2339 18.75 11.919V9.5C18.75 9.10218 18.908 8.72064 19.1893 8.43934C19.4706 8.15804 19.8522 8 20.25 8H21V7.622C21 7.437 21 7.374 20.997 7.316C20.9637 6.72107 20.6958 6.16364 20.252 5.766C20.1747 5.69933 20.0956 5.63464 20.015 5.572L18.782 4.586C18.7037 4.525 18.6383 4.44906 18.5896 4.3626C18.5409 4.27614 18.5098 4.18087 18.4982 4.08231C18.4865 3.98375 18.4946 3.88386 18.5219 3.78843C18.5491 3.693 18.595 3.60393 18.657 3.52639C18.7189 3.44884 18.7956 3.38435 18.8826 3.33667C18.9697 3.28898 19.0653 3.25904 19.164 3.24859C19.2627 3.23814 19.3625 3.24737 19.4576 3.27577C19.5527 3.30416 19.6412 3.35115 19.718 3.414L20.968 4.414C21.09 4.512 21.174 4.579 21.253 4.65C21.9921 5.31252 22.4383 6.24102 22.494 7.232C22.5 7.337 22.5 7.445 22.5 7.602V18.5C22.5 19.0967 22.2629 19.669 21.841 20.091C21.419 20.5129 20.8467 20.75 20.25 20.75C19.6533 20.75 19.081 20.5129 18.659 20.091C18.2371 19.669 18 19.0967 18 18.5V18.429C17.9997 18.249 17.9281 18.0764 17.8008 17.9492C17.6736 17.8219 17.501 17.7503 17.321 17.75H15.75V21.25H16.873C17.0719 21.25 17.2627 21.329 17.4033 21.4697C17.544 21.6103 17.623 21.8011 17.623 22C17.623 22.1989 17.544 22.3897 17.4033 22.5303C17.2627 22.671 17.0719 22.75 16.873 22.75H1.75C1.55109 22.75 1.36032 22.671 1.21967 22.5303C1.07902 22.3897 1 22.1989 1 22C1 21.8011 1.07902 21.6103 1.21967 21.4697C1.36032 21.329 1.55109 21.25 1.75 21.25H2.75V8C2.75 5.172 2.75 3.757 3.629 2.879C4.507 2 5.922 2 8.75 2ZM7 16.25C6.80109 16.25 6.61032 16.329 6.46967 16.4697C6.32902 16.6103 6.25 16.8011 6.25 17C6.25 17.1989 6.32902 17.3897 6.46967 17.5303C6.61032 17.671 6.80109 17.75 7 17.75H12C12.1989 17.75 12.3897 17.671 12.5303 17.5303C12.671 17.3897 12.75 17.1989 12.75 17C12.75 16.8011 12.671 16.6103 12.5303 16.4697C12.3897 16.329 12.1989 16.25 12 16.25H7ZM11 6H8C7.057 6 6.586 6 6.293 6.293C6 6.586 6 7.057 6 8C6 8.943 6 9.414 6.293 9.707C6.586 10 7.057 10 8 10H11C11.943 10 12.414 10 12.707 9.707C13 9.414 13 8.943 13 8C13 7.057 13 6.586 12.707 6.293C12.414 6 11.943 6 11 6Z" fill="white"/>
</svg>
